<svg width="20" height="24" viewBox="0 0 20 24" fill="none" xmlns="http://www.w3.org/2000/svg">
<path d="M19.1685 8.18824C17.5693 9.17647 16.5816 10.8706 16.5816 12.7529C16.5816 14.8706 17.8515 16.8 19.78 17.6C19.4037 18.8235 18.8393 19.9529 18.1337 20.9882C17.099 22.4471 16.0171 23.9529 14.4179 23.9529C12.8187 23.9529 12.3483 23.0118 10.4669 23.0118C8.63244 23.0118 7.97394 24 6.46878 24C4.96362 24 3.92883 22.6353 2.75293 20.9412C1.20073 18.5882 0.307046 15.8588 0.26001 12.9882C0.26001 8.32941 3.27032 5.83529 6.28064 5.83529C7.87987 5.83529 9.19688 6.87059 10.1846 6.87059C11.1254 6.87059 12.6305 5.78824 14.4179 5.78824C16.2993 5.74118 18.0867 6.63529 19.1685 8.18824ZM13.5712 3.81176C14.3709 2.87059 14.7942 1.69412 14.8412 0.470588C14.8412 0.329412 14.8412 0.141176 14.7942 0C13.4301 0.141176 12.1602 0.8 11.2665 1.83529C10.4669 2.72941 9.99649 3.85882 9.94946 5.08235C9.94946 5.22353 9.94946 5.36471 9.99649 5.50588C10.0906 5.50588 10.2317 5.55294 10.3257 5.55294C11.5957 5.45882 12.7716 4.8 13.5712 3.81176Z" fill="white"/>
</svg>
