<svg width="108" height="108" viewBox="0 0 108 108" fill="none" xmlns="http://www.w3.org/2000/svg">
<rect x="2" y="2" width="104" height="104" rx="52" fill="#D7D7D7"/>
<rect x="2" y="2" width="104" height="104" rx="52" stroke="white" stroke-width="4"/>
<path d="M75.2118 73.4061C75.0636 73.6627 74.8506 73.8758 74.5939 74.0239C74.3373 74.172 74.0463 74.2499 73.75 74.2499H33.25C32.9539 74.2496 32.6631 74.1714 32.4068 74.0232C32.1505 73.8749 31.9378 73.6619 31.7899 73.4054C31.642 73.1489 31.5641 72.858 31.5642 72.562C31.5643 72.2659 31.6423 71.975 31.7903 71.7186C35.0029 66.1646 39.9536 62.1821 45.7312 60.2943C42.8733 58.593 40.6529 56.0006 39.411 52.9152C38.1691 49.8299 37.9743 46.4222 38.8566 43.2154C39.7388 40.0086 41.6493 37.1801 44.2947 35.1643C46.9401 33.1484 50.1741 32.0566 53.5 32.0566C56.8259 32.0566 60.0599 33.1484 62.7052 35.1643C65.3506 37.1801 67.2611 40.0086 68.1434 43.2154C69.0256 46.4222 68.8309 49.8299 67.5889 52.9152C66.347 56.0006 64.1267 58.593 61.2688 60.2943C67.0464 62.1821 71.9971 66.1646 75.2097 71.7186C75.3581 71.975 75.4364 72.2659 75.4368 72.5621C75.4372 72.8583 75.3596 73.1494 75.2118 73.4061Z" fill="white"/>
</svg>
