<svg width="20" height="20" viewBox="0 0 20 20" fill="none" xmlns="http://www.w3.org/2000/svg">
<path d="M10 3.33301C5.45455 3.33301 1.57273 6.09745 0 9.99967C1.57273 13.9019 5.45455 16.6663 10 16.6663C14.5455 16.6663 18.4273 13.9019 20 9.99967C18.4273 6.09745 14.5455 3.33301 10 3.33301ZM10 14.4441C7.49091 14.4441 5.45455 12.453 5.45455 9.99967C5.45455 7.54634 7.49091 5.55523 10 5.55523C12.5091 5.55523 14.5455 7.54634 14.5455 9.99967C14.5455 12.453 12.5091 14.4441 10 14.4441ZM10 7.33301C8.49091 7.33301 7.27273 8.52412 7.27273 9.99967C7.27273 11.4752 8.49091 12.6663 10 12.6663C11.5091 12.6663 12.7273 11.4752 12.7273 9.99967C12.7273 8.52412 11.5091 7.33301 10 7.33301Z" fill="#959595"/>
</svg>
