<svg width="20" height="20" viewBox="0 0 20 20" fill="none" xmlns="http://www.w3.org/2000/svg">
<path fill-rule="evenodd" clip-rule="evenodd" d="M14.4492 10.9133C14.5123 10.6184 14.5455 10.3128 14.5455 9.99967C14.5455 7.54634 12.5091 5.55523 10 5.55523C9.71511 5.55523 9.43631 5.5809 9.16589 5.63L7.22367 3.68778C8.10916 3.45638 9.03977 3.33301 10 3.33301C14.5455 3.33301 18.4273 6.09745 20 9.99967C19.4117 11.4594 18.5003 12.7599 17.3519 13.816L14.4492 10.9133Z" fill="#959595"/>
<path fill-rule="evenodd" clip-rule="evenodd" d="M2.64814 6.18331C1.49974 7.23946 0.588313 8.53996 0 9.99967C0.540625 11.3411 1.3541 12.548 2.37359 13.5544C2.45608 13.6359 2.53991 13.716 2.62506 13.7947C3.90227 14.9763 5.47494 15.8546 7.22362 16.3116C8.10912 16.543 9.03975 16.6663 10 16.6663C10.9602 16.6663 11.8909 16.543 12.7764 16.3116C13.2315 16.1926 13.6747 16.0452 14.1038 15.8712L15.7828 17.5502C16.2709 18.0384 17.0624 18.0384 17.5505 17.5502C18.0387 17.0621 18.0387 16.2706 17.5505 15.7825L4.21722 2.44912C3.72906 1.96097 2.93761 1.96097 2.44945 2.44912C1.96129 2.93728 1.96129 3.72874 2.44945 4.21689L3.62095 5.3884C3.28076 5.63472 2.95594 5.90024 2.64814 6.18331ZM10 14.4441C10.2849 14.4441 10.5637 14.4184 10.8342 14.3693C11.3014 14.2845 11.7436 14.1297 12.149 13.9165L6.04358 7.81103C5.81625 8.20286 5.64803 8.63172 5.55083 9.086C5.48772 9.38091 5.45455 9.68653 5.45455 9.99967C5.45455 10.3128 5.48772 10.6184 5.55081 10.9133C5.92799 12.6761 7.37447 14.0563 9.19572 14.3747C9.45679 14.4203 9.72557 14.4441 10 14.4441Z" fill="#959595"/>
</svg>
