<svg width="25" height="24" viewBox="0 0 25 24" fill="none" xmlns="http://www.w3.org/2000/svg">
<path d="M12.2703 9.8125V13.9836H18.0668C17.8122 15.3251 17.0484 16.4609 15.9028 17.2246L19.3983 19.9369C21.4349 18.057 22.6099 15.2958 22.6099 12.0157C22.6099 11.252 22.5414 10.5175 22.4141 9.81262L12.2703 9.8125Z" fill="white"/>
<path d="M6.23411 13.8213L5.44574 14.4248L2.65515 16.5984C4.42739 20.1135 8.05972 22.5418 12.27 22.5418C15.178 22.5418 17.616 21.5822 19.3981 19.9373L15.9025 17.2251C14.943 17.8713 13.7191 18.263 12.27 18.263C9.46967 18.263 7.09043 16.3733 6.23852 13.8275L6.23411 13.8213Z" fill="white"/>
<path d="M2.65518 6.94336C1.92086 8.39243 1.49988 10.0276 1.49988 11.7704C1.49988 13.5133 1.92086 15.1485 2.65518 16.5975C2.65518 16.6073 6.23889 13.8168 6.23889 13.8168C6.02348 13.1706 5.89615 12.4852 5.89615 11.7703C5.89615 11.0555 6.02348 10.3701 6.23889 9.72389L2.65518 6.94336Z" fill="white"/>
<path d="M12.2702 5.28862C13.8564 5.28862 15.2664 5.83693 16.3924 6.89441L19.4766 3.81016C17.6065 2.06733 15.1783 1 12.2702 1C8.05995 1 4.42739 3.41847 2.65515 6.94338L6.23875 9.72414C7.09055 7.17835 9.46989 5.28862 12.2702 5.28862Z" fill="white"/>
</svg>
