<svg width="23" height="22" viewBox="0 0 23 22" fill="none" xmlns="http://www.w3.org/2000/svg">
    <g clip-path="url(#clip0_76_15152)">
        <path
            d="M6.36673 11.0001L10.7667 14.6667L16.6334 7.3334M11.5001 21.2667C10.1518 21.2667 8.81679 21.0012 7.57118 20.4852C6.32557 19.9693 5.19378 19.213 4.24044 18.2597C3.28709 17.3063 2.53085 16.1746 2.0149 14.9289C1.49895 13.6833 1.2334 12.3483 1.2334 11.0001C1.2334 9.65183 1.49895 8.31679 2.0149 7.07118C2.53085 5.82557 3.28709 4.69378 4.24044 3.74044C5.19378 2.78709 6.32557 2.03085 7.57118 1.5149C8.81679 0.998954 10.1518 0.733398 11.5001 0.733398C14.223 0.733398 16.8343 1.81506 18.7597 3.74044C20.6851 5.66581 21.7667 8.27718 21.7667 11.0001C21.7667 13.723 20.6851 16.3343 18.7597 18.2597C16.8343 20.1851 14.223 21.2667 11.5001 21.2667Z"
            stroke="white" stroke-width="2" />
    </g>
    <defs>
        <clipPath id="clip0_76_15152">
            <rect width="22" height="22" fill="white" transform="translate(0.5)" />
        </clipPath>
    </defs>
</svg>
